<?xml version="1.0" encoding="UTF-8"?><svg id="Layer_1" xmlns="http://www.w3.org/2000/svg" viewBox="0 0 335.42 53.5"><defs><style>.cls-1{fill:#fff;}</style></defs><path class="cls-1" d="m169.06,14.34c0-3.49,3.12-6.24,8.47-6.24,4.76,0,9.44,1.86,14.12,5.35l4.9-6.91c-5.28-4.24-11.29-6.54-18.87-6.54-10.33,0-17.76,6.09-17.76,15.16,0,9.66,6.24,12.93,17.31,15.6,9.66,2.23,11.74,4.24,11.74,8.02,0,4.01-3.57,6.61-9.21,6.61-6.47,0-11.44-2.45-16.42-6.76l-5.5,6.54c6.24,5.57,13.75,8.32,21.7,8.32,10.92,0,18.58-5.8,18.58-15.61,0-8.69-5.72-12.63-16.72-15.31-9.96-2.38-12.34-4.16-12.34-8.25"/><rect class="cls-1" x="128.27" y=".74" width="9.29" height="52.02"/><polygon class="cls-1" points="9.14 8.92 38.57 8.92 38.57 .74 0 .74 0 52.76 38.94 52.76 38.94 44.58 9.14 44.58 9.14 8.92"/><rect class="cls-1" x="14.37" y="22.57" width="18.99" height="8.17"/><path class="cls-1" d="m107.24,26.79c0-14.34-11.67-25.93-26.01-25.93l-6.83-.03v9.32h6.83c9.21,0,16.72,7.5,16.72,16.72s-7.51,16.72-16.72,16.72h-11.97V.81s-9.21-.03-9.21-.03v52.02h21.26c7.13,0,13.6-2.9,18.28-7.65.52-.52,1.04-1.04,1.49-1.56,3.86-4.53,6.17-10.4,6.17-16.79"/><path class="cls-1" d="m260.17,27.08c0,9.21-7.51,16.72-16.72,16.72s-16.72-7.51-16.72-16.72,7.51-16.72,16.72-16.72,16.72,7.5,16.72,16.72m9.29,0c0-14.34-11.67-26.01-26.01-26.01s-26.01,11.67-26.01,26.01,11.67,26.01,26.01,26.01,26.01-11.67,26.01-26.01"/><g><polygon class="cls-1" points="335.42 41.74 288.4 .78 288.4 12.51 335.42 53.5 335.42 41.74"/><polygon class="cls-1" points="288.4 18.69 288.4 52.83 297.64 52.83 297.64 26.79 288.4 18.69"/><polygon class="cls-1" points="335.42 35.34 335.42 .74 326.18 .74 326.18 27.23 335.42 35.34"/></g></svg>